<svg xmlns="http://www.w3.org/2000/svg" version="1.1" xmlns:xlink="http://www.w3.org/1999/xlink" xmlns:svgjs="http://svgjs.dev/svgjs" width="1000" height="750" viewBox="0 0 1000 750"><rect width="1000" height="750" fill="#000000"></rect><g transform="matrix(0.834,0,0,0.834,82.49454545454546,115.4193570850203)"><svg viewBox="0 0 396 247" data-background-color="#010536" preserveAspectRatio="xMidYMid meet" height="623" width="1000" xmlns="http://www.w3.org/2000/svg" xmlns:xlink="http://www.w3.org/1999/xlink"><g id="tight-bounds" transform="matrix(1,0,0,1,0.2400000000000091,-0.09999999999999432)"><svg viewBox="0 0 395.52 247.2" height="247.2" width="395.52"><g><svg></svg></g><g><svg viewBox="0 0 395.52 247.2" height="247.2" width="395.52"><g><path xmlns="http://www.w3.org/2000/svg" d="M55.039 247.2l64.695-112.056v13.136l-53.111 91.992h262.274l-53.111-91.992v-13.136l64.695 112.056zM197.76 0l26.403 45.732-7.583 0-18.82-32.596-18.82 32.596-7.583 0z" fill="#ffffff" fill-rule="nonzero" stroke="none" stroke-width="1" stroke-linecap="butt" stroke-linejoin="miter" stroke-miterlimit="10" stroke-dasharray="" stroke-dashoffset="0" font-family="none" font-weight="none" font-size="none" text-anchor="none" style="mix-blend-mode: normal" data-fill-palette-color="tertiary"></path></g><g transform="matrix(1,0,0,1,141.98243626062322,67.97999999999999)"><svg viewBox="0 0 111.55512747875352 111.24" height="111.24" width="111.55512747875352"><g><svg viewBox="0 0 111.55512747875352 111.24" height="111.24" width="111.55512747875352"><g><svg viewBox="0 0 111.55512747875352 111.24" height="111.24" width="111.55512747875352"><g><svg viewBox="0 0 111.55512747875352 111.24" height="111.24" width="111.55512747875352"><g id="textblocktransform"><svg viewBox="0 0 111.55512747875352 111.24" height="111.24" width="111.55512747875352" id="textblock"><g><svg viewBox="0 0 111.55512747875352 111.24" height="111.24" width="111.55512747875352"><g transform="matrix(1,0,0,1,0,0)"><svg width="111.55512747875352" viewBox="-0.75 -34.5 35.400001525878906 35.29999923706055" height="111.24" data-palette-color="#fbfbf8"><path d="M27.05-33.85Q27.85-33.8 28.2-33.55 28.55-33.3 28.55-32.8L28.55-32.8Q28.55-32.35 28.35-31.85L28.35-31.85 18.2-4.75 18-4.75 7.4-33.7 11.75-34.1 11.75-34.5-0.75-34.5-0.75-34.1 3.35-33.7 16 0.8 16.9 0.8 29.15-31.85Q29.55-33 30.08-33.38 30.6-33.75 31.85-33.85L31.85-33.85 34.65-34.1 34.65-34.5 24-34.5 24-34.1 27.05-33.85Z" opacity="1" transform="matrix(1,0,0,1,0,0)" fill="#ffffff" class="wordmark-text-0" data-fill-palette-color="primary" id="text-0"></path></svg></g></svg></g></svg></g></svg></g></svg></g></svg></g></svg></g></svg></g><defs></defs></svg><rect width="395.52" height="247.2" fill="none" stroke="none" visibility="hidden"></rect></g></svg></g></svg>